<svg xmlns="http://www.w3.org/2000/svg" xmlns:xlink="http://www.w3.org/1999/xlink" viewBox="0,0,256,256" width="48px" height="48px" fill-rule="nonzero"><g fill="#000000" fill-rule="nonzero" stroke="none" stroke-width="1" stroke-linecap="butt" stroke-linejoin="miter" stroke-miterlimit="10" stroke-dasharray="" stroke-dashoffset="0" font-family="none" font-weight="none" font-size="none" text-anchor="none" style="mix-blend-mode: normal"><g transform="scale(5.33333,5.33333)"><path d="M24,9c-12.703,0 -23,6.716 -23,15c0,8.284 10.297,15 23,15c12.703,0 23,-6.716 23,-15c0,-8.284 -10.297,-15 -23,-15zM24,36c-10.493,0 -19,-5.373 -19,-12c0,-6.627 8.507,-12 19,-12c10.493,0 19,5.373 19,12c0,6.627 -8.507,12 -19,12z"></path><path d="M24,12c-3.314,0 -6,5.373 -6,12c0,6.627 2.686,12 6,12c3.314,0 6,-5.373 6,-12c0,-6.627 -2.686,-12 -6,-12zM24,32c-1.657,0 -3,-3.582 -3,-8c0,-4.418 1.343,-8 3,-8c1.657,0 3,3.582 3,8c0,4.418 -1.343,8 -3,8z"></path><path d="M21.001,24.039c0,-0.013 -0.001,-0.026 -0.001,-0.039c0,-4.418 1.343,-8 3,-8c1.657,0 3,3.582 3,8c0,0.089 -0.004,0.176 -0.005,0.265c0.003,0 0.006,0 0.01,0.001c0.022,-5.804 -0.63,-10.266 -3.005,-10.266c-2.5,0 -3.011,4.597 -3.007,10.04c0.003,0 0.005,-0.001 0.008,-0.001z"></path><path d="M24,10c-8.837,0 -16,3.134 -16,7c0,3.866 7.163,7 16,7c8.837,0 16,-3.134 16,-7c0,-3.866 -7.163,-7 -16,-7zM24,21c-6.627,0 -12,-2.265 -12,-4.75c0,-2.485 5.373,-4.25 12,-4.25c6.627,0 12,1.765 12,4.25c0,2.485 -5.373,4.75 -12,4.75z"></path><path d="M5,24c0,-2.403 1.13,-4.636 3.056,-6.513c-0.025,-0.162 -0.056,-0.323 -0.056,-0.487c0,-0.615 0.2,-1.209 0.541,-1.778c-3.535,2.031 -5.541,4.985 -5.541,8.778c0,7.184 9.455,10.746 16.936,11.718c-8.539,-1.176 -14.936,-5.973 -14.936,-11.718zM39.459,15.222c0.341,0.569 0.541,1.163 0.541,1.778c0,0.164 -0.031,0.325 -0.056,0.487c1.926,1.877 3.056,4.11 3.056,6.513c0,5.745 -6.397,10.542 -14.936,11.718c7.481,-0.972 16.936,-4.534 16.936,-11.718c0,-3.793 -2.006,-6.747 -5.541,-8.778z"></path></g></g></svg>